#!OML:ASF E:\Style4\Style4.ASF
:FULLY-SPECIFIED
:DEGREES
3721
root 1.58578 18.1553 -0.900072 9.93644 7.03641 4.33235
lowerback 11.8109 1.0596 5.40189
upperback 5.24004 2.16113 7.14215
thorax -1.19958 1.08635 4.1611
lowerneck -7.14359 -1.33694 -2.75894
upperneck 0.851893 -2.34299 27.8813
head 1.95833 -0.560649 9.14133
rclavicle 4.77083e-014 2.54444e-014
rhumerus -45.5944 3.68614 -80.6725
rradius 76.4832
rwrist 28.4633
rhand 13.2452 -6.69943
rfingers 7.12502
rthumb 38.1974 -32.4447
lclavicle 4.77083e-014 2.54444e-014
lhumerus -42.8466 -38.1136 113.254
lradius 44.1774
lwrist 24.4472
lhand -7.26302 33.3665
lfingers 7.12502
lthumb 18.6178 62.4956
rfemur -15.8236 5.06852 9.01295
rtibia 21.191
rfoot -14.275 -21.3484
rtoes -10.1968
lfemur -15.5296 -4.28411 -28.7017
ltibia 15.9629
lfoot -9.64263 6.04467
ltoes -9.00733
3722
root 1.62426 18.1436 -0.892558 9.8147 6.96128 4.46267
lowerback 11.7471 0.912099 5.49332
upperback 5.23915 1.97348 7.27056
thorax -1.15972 0.993489 4.27188
lowerneck -7.24535 -1.29271 -2.72228
upperneck 1.23377 -2.39625 28.1498
head 2.10093 -0.542199 9.23342
rclavicle -4.92986e-014 3.18055e-015
rhumerus -45.5161 3.68539 -80.5826
rradius 76.7827
rwrist 28.8401
rhand 13.1247 -6.68071
rfingers 7.12502
rthumb 38.0836 -32.4571
lclavicle -4.92986e-014 3.18055e-015
lhumerus -42.8738 -38.2941 113.465
lradius 44.0039
lwrist 24.7288
lhand -7.40139 33.3576
lfingers 7.12502
lthumb 18.4847 62.4993
rfemur -15.9451 5.08812 8.74574
rtibia 21.749
rfoot -14.569 -21.3107
rtoes -10.3789
lfemur -15.3703 -3.96723 -29.018
ltibia 16.008
lfoot -9.75896 5.72407
ltoes -8.36544
3723
root 1.66147 18.1294 -0.888248 9.71848 6.9451 4.6868
lowerback 11.6879 0.73112 5.47441
upperback 5.21827 1.73243 7.38803
thorax -1.1445 0.872562 4.43931
lowerneck -7.29582 -1.23022 -2.63324
upperneck 1.59806 -2.42049 28.3125
head 2.22103 -0.516261 9.27942
rclavicle -1.43125e-014 -6.36111e-014
rhumerus -45.3656 3.77326 -80.5109
rradius 76.973
rwrist 29.1789
rhand 12.8584 -6.58935
rfingers 7.12502
rthumb 37.8321 -32.4341
lclavicle -1.43125e-014 -6.36111e-014
lhumerus -42.7521 -38.3222 113.597
lradius 43.6692
lwrist 24.9815
lhand -7.50314 33.1775
lfingers 7.12502
lthumb 18.3869 62.3285
rfemur -16.0869 5.03949 8.3848
rtibia 22.324
rfoot -14.7862 -21.2988
rtoes -10.7206
lfemur -15.2827 -3.76534 -29.4255
ltibia 16.1614
lfoot -9.89816 5.47478
ltoes -8.2208
3724
root 1.7007 18.113 -0.880538 9.585 6.77558 4.92674
lowerback 11.6338 0.590868 5.46614
upperback 5.22011 1.54205 7.44864
thorax -1.10718 0.777383 4.53357
lowerneck -7.3343 -1.16394 -2.62872
upperneck 1.92724 -2.42741 28.5626
head 2.32943 -0.484226 9.37404
rclavicle -2.06736e-014 -6.04305e-014
rhumerus -45.1802 3.87571 -80.481
rradius 77.1344
rwrist 29.3797
rhand 12.6289 -6.52072
rfingers 7.12502
rthumb 37.6153 -32.4236
lclavicle -2.06736e-014 -6.04305e-014
lhumerus -42.6276 -37.938 113.486
lradius 43.5893
lwrist 24.8836
lhand -7.40275 33.245
lfingers 7.12502
lthumb 18.4834 62.3868
rfemur -16.2427 4.95006 8.0001
rtibia 22.9482
rfoot -15.0177 -21.1184
rtoes -10.9905
lfemur -15.1523 -3.4693 -29.8782
ltibia 16.3348
lfoot -10.0484 5.33256
ltoes -8.33461
3725
root 1.73995 18.0966 -0.870064 9.39496 6.53195 5.0693
lowerback 11.5962 0.501879 5.56327
upperback 5.23605 1.42967 7.4989
thorax -1.06347 0.722359 4.5474
lowerneck -7.48919 -1.13921 -2.63941
upperneck 2.37238 -2.52945 28.8371
head 2.50992 -0.477764 9.47954
rclavicle 4.77083e-015 -6.36111e-015
rhumerus -45.0273 3.84153 -80.4715
rradius 77.3172
rwrist 29.6117
rhand 12.3823 -6.58114
rfingers 7.12502
rthumb 37.3822 -32.5458
lclavicle 4.77083e-015 -6.36111e-015
lhumerus -42.6838 -37.565 113.365
lradius 43.7408
lwrist 24.7232
lhand -7.15538 33.3663
lfingers 7.12502
lthumb 18.7214 62.4854
rfemur -16.3821 4.94393 7.71784
rtibia 23.6277
rfoot -15.3599 -20.8623
rtoes -10.6912
lfemur -14.9686 -3.11522 -30.2259
ltibia 16.4936
lfoot -10.1788 5.17063
ltoes -8.0704
3726
root 1.7792 18.0804 -0.855471 9.1754 6.27484 5.28667
lowerback 11.5343 0.399467 5.49847
upperback 5.27559 1.27887 7.57908
thorax -0.985034 0.646202 4.68946
lowerneck -7.60575 -1.06962 -2.61004
upperneck 2.86084 -2.57894 28.9949
head 2.68342 -0.44684 9.53926
rclavicle -4.77083e-015 -5.725e-014
rhumerus -44.8873 3.84205 -80.4152
rradius 77.4961
rwrist 30.0204
rhand 12.0885 -6.50099
rfingers 7.12502
rthumb 37.1045 -32.5384
lclavicle -4.77083e-015 -5.725e-014
lhumerus -42.7742 -37.366 113.41
lradius 43.7256
lwrist 24.88
lhand -7.27035 33.0872
lfingers 7.12502
lthumb 18.6108 62.217
rfemur -16.4889 4.90802 7.35583
rtibia 24.3308
rfoot -15.6768 -20.5847
rtoes -10.7208
lfemur -14.7413 -2.78864 -30.6573
ltibia 16.6847
lfoot -10.3878 5.04304
ltoes -7.81683
3727
root 1.81904 18.0611 -0.840601 8.96194 5.98931 5.62181
lowerback 11.46 0.254744 5.28007
upperback 5.34211 1.05241 7.64541
thorax -0.870308 0.530381 4.91271
lowerneck -7.69465 -0.966673 -2.62008
upperneck 3.32156 -2.57036 29.1104
head 2.83331 -0.3946 9.59424
rclavicle -3.18055e-014 -6.04305e-014
rhumerus -44.6567 3.99315 -80.3824
rradius 77.6733
rwrist 30.4161
rhand 11.833 -6.4405
rfingers 7.12502
rthumb 36.8627 -32.5403
lclavicle -3.18055e-014 -6.04305e-014
lhumerus -42.6842 -37.1202 113.413
lradius 43.5962
lwrist 25.133
lhand -7.39559 33.0365
lfingers 7.12502
lthumb 18.4903 62.1777
rfemur -16.6065 4.93161 6.84508
rtibia 25.033
rfoot -15.9778 -20.3638
rtoes -11.175
lfemur -14.5407 -2.48893 -31.2159
ltibia 16.9375
lfoot -10.6363 4.96374
ltoes -7.75367
3728
root 1.85671 18.0405 -0.827382 8.75409 5.67306 5.87487
lowerback 11.4097 0.125523 5.15446
upperback 5.38224 0.860009 7.68596
thorax -0.793863 0.432268 5.05122
lowerneck -7.73772 -0.875915 -2.5564
upperneck 3.74114 -2.56991 29.157
head 2.96184 -0.353685 9.60915
rclavicle 9.54166e-015 -5.40694e-014
rhumerus -44.3851 4.11737 -80.4146
rradius 77.7445
rwrist 30.669
rhand 11.3899 -6.30516
rfingers 7.12502
rthumb 36.4434 -32.5115
lclavicle 9.54166e-015 -5.40694e-014
lhumerus -42.6356 -36.8792 113.367
lradius 43.5211
lwrist 25.3246
lhand -7.27386 33.0743
lfingers 7.12502
lthumb 18.6074 62.2044
rfemur -16.7779 5.06037 6.42396
rtibia 25.733
rfoot -16.1928 -20.2533
rtoes -11.8554
lfemur -14.3979 -2.09641 -31.6855
ltibia 17.2443
lfoot -10.8716 4.86581
ltoes -8.15471
3729
root 1.89376 18.0198 -0.811666 8.47333 5.29836 6.03511
lowerback 11.4112 0.0357001 5.15547
upperback 5.42116 0.737007 7.71204
thorax -0.747303 0.370338 5.09403
lowerneck -7.69202 -0.758501 -2.35005
upperneck 4.11181 -2.51844 29.0473
head 3.04556 -0.300329 9.54057
rclavicle 1.43125e-014 -1.27222e-014
rhumerus -44.1979 4.08326 -80.4641
rradius 77.8234
rwrist 30.9828
rhand 10.9611 -6.06995
rfingers 7.12502
rthumb 36.0374 -32.3773
lclavicle 1.43125e-014 -1.27222e-014
lhumerus -42.6967 -36.5898 113.284
lradius 43.5673
lwrist 25.4843
lhand -7.12437 33.0566
lfingers 7.12502
lthumb 18.7512 62.1728
rfemur -16.8954 5.20479 6.12245
rtibia 26.4358
rfoot -16.3469 -20.1121
rtoes -12.418
lfemur -14.2182 -1.67785 -32.0483
ltibia 17.5964
lfoot -11.1828 4.82237
ltoes -8.29499
3730
root 1.92884 17.9963 -0.795737 8.16843 4.92359 6.24188
lowerback 11.4295 -0.0467094 5.13096
upperback 5.47202 0.620711 7.69114
thorax -0.697638 0.311866 5.09997
lowerneck -7.64731 -0.704433 -2.23746
upperneck 4.48461 -2.55744 29.1125
head 3.15158 -0.286429 9.55026
rclavicle 1.59028e-014 1.04958e-013
rhumerus -44.0488 3.96107 -80.574
rradius 77.9599
rwrist 31.462
rhand 10.5678 -5.983
rfingers 7.12502
rthumb 35.6646 -32.3812
lclavicle 1.59028e-014 1.04958e-013
lhumerus -42.8103 -36.4287 113.207
lradius 43.6388
lwrist 25.7165
lhand -7.17669 33.0932
lfingers 7.12502
lthumb 18.7009 62.2143
rfemur -16.9812 5.36761 5.77634
rtibia 27.13
rfoot -16.6193 -19.979
rtoes -12.686
lfemur -14.0343 -1.37302 -32.4529
ltibia 17.9815
lfoot -11.5373 4.93152
ltoes -8.41137
3731
root 1.96199 17.9727 -0.78281 7.87312 4.56903 6.56767
lowerback 11.4556 -0.169291 4.94133
upperback 5.5542 0.432651 7.655
thorax -0.617281 0.215187 5.19183
lowerneck -7.70284 -0.606391 -2.15648
upperneck 4.8947 -2.54502 29.1039
head 3.27696 -0.240332 9.54372
rclavicle -1.74931e-014 -1.59028e-014
rhumerus -43.7393 4.00183 -80.6753
rradius 78.0901
rwrist 31.6504
rhand 10.3686 -5.87505
rfingers 7.12502
rthumb 35.4758 -32.3186
lclavicle -1.74931e-014 -1.59028e-014
lhumerus -42.7353 -36.207 113.053
lradius 43.5942
lwrist 25.9114
lhand -7.07498 33.0442
lfingers 7.12502
lthumb 18.7987 62.1558
rfemur -17.0681 5.46758 5.30267
rtibia 27.8092
rfoot -16.89 -19.7992
rtoes -12.7639
lfemur -13.8571 -1.15673 -32.9647
ltibia 18.3765
lfoot -11.8316 5.01653
ltoes -7.99966
3732
root 1.99471 17.9507 -0.76547 7.57221 4.18688 6.87103
lowerback 11.4179 -0.298497 4.71799
upperback 5.63214 0.227132 7.65127
thorax -0.504647 0.108527 5.33914
lowerneck -7.74244 -0.464733 -2.01167
upperneck 5.39373 -2.48563 28.8826
head 3.41131 -0.170175 9.45173
rclavicle 2.22639e-014 1.27222e-014
rhumerus -43.4199 4.08736 -80.7226
rradius 78.3316
rwrist 31.42
rhand 10.6909 -5.8187
rfingers 7.12502
rthumb 35.7813 -32.1886
lclavicle 2.22639e-014 1.27222e-014
lhumerus -42.7242 -35.8328 112.952
lradius 43.5788
lwrist 25.9897
lhand -7.04247 32.8899
lfingers 7.12502
lthumb 18.83 61.9985
rfemur -17.1403 5.57667 4.85402
rtibia 28.4846
rfoot -17.1492 -19.5346
rtoes -12.61
lfemur -13.6711 -0.812163 -33.454
ltibia 18.7786
lfoot -12.0944 5.00433
ltoes -7.8651
